<?xml version="1.0" encoding="UTF-8" standalone="no"?>
<!DOCTYPE svg PUBLIC "-//W3C//DTD SVG 1.1//EN"
 "http://www.w3.org/Graphics/SVG/1.1/DTD/svg11.dtd">
<!-- Generated by graphviz version 2.38.0 (20140413.2041)
 -->
<!-- Title: DAG Pages: 1 -->
<svg width="1196pt" height="534pt"
 viewBox="0.00 0.00 1196.14 533.60" xmlns="http://www.w3.org/2000/svg" xmlns:xlink="http://www.w3.org/1999/xlink">
<g id="graph0" class="graph" transform="scale(1 1) rotate(0) translate(4 529.6)">
<title>DAG</title>
<polygon fill="white" stroke="none" points="-4,4 -4,-529.6 1192.14,-529.6 1192.14,4 -4,4"/>
<!-- p0 -->
<g id="node1" class="node"><title>p0</title>
<ellipse fill="black" stroke="black" cx="128.6" cy="-333.6" rx="3.6" ry="3.6"/>
<text text-anchor="middle" x="75" y="-341" font-family="Times,serif" font-size="14.00">Channel.fromPath</text>
</g>
<!-- p1 -->
<g id="node2" class="node"><title>p1</title>
<ellipse fill="none" stroke="black" cx="128.6" cy="-246.6" rx="3.5" ry="3.5"/>
<text text-anchor="middle" x="114.1" y="-253.9" font-family="Times,serif" font-size="14.00">into</text>
</g>
<!-- p0&#45;&gt;p1 -->
<g id="edge1" class="edge"><title>p0&#45;&gt;p1</title>
<path fill="none" stroke="black" d="M128.6,-329.772C128.6,-319.091 128.6,-280.786 128.6,-260.468"/>
<polygon fill="black" stroke="black" points="132.1,-260.184 128.6,-250.184 125.1,-260.185 132.1,-260.184"/>
</g>
<!-- p2 -->
<g id="node3" class="node"><title>p2</title>
<ellipse fill="black" stroke="black" cx="26.6" cy="-159.6" rx="1.8" ry="1.8"/>
</g>
<!-- p1&#45;&gt;p2 -->
<g id="edge2" class="edge"><title>p1&#45;&gt;p2</title>
<path fill="none" stroke="black" d="M125.01,-245.675C109.988,-245.772 51.8252,-243.923 27.6,-210.6 19.2719,-199.144 21.1512,-181.986 23.611,-171.044"/>
<polygon fill="black" stroke="black" points="26.9836,-171.98 26.3124,-161.406 20.2433,-170.091 26.9836,-171.98"/>
<text text-anchor="middle" x="117.6" y="-199.4" font-family="Times,serif" font-size="14.00">goldstandard_dir_robinsonfoulds</text>
</g>
<!-- p12 -->
<g id="node4" class="node"><title>p12</title>
<ellipse fill="none" stroke="black" cx="421.6" cy="-159.6" rx="79.8859" ry="18"/>
<text text-anchor="middle" x="421.6" y="-155.9" font-family="Times,serif" font-size="14.00">SnPrecisionMetrics</text>
</g>
<!-- p1&#45;&gt;p12 -->
<g id="edge3" class="edge"><title>p1&#45;&gt;p12</title>
<path fill="none" stroke="black" d="M131.698,-244.436C142.46,-240.349 179.125,-226.063 207.6,-210.6 218.325,-204.776 219.265,-200.122 230.6,-195.6 264.657,-182.014 304.251,-173.655 338.53,-168.533"/>
<polygon fill="black" stroke="black" points="339.11,-171.986 348.516,-167.109 338.122,-165.056 339.11,-171.986"/>
<text text-anchor="middle" x="310.6" y="-199.4" font-family="Times,serif" font-size="14.00">goldstandard_dir_snprecision</text>
</g>
<!-- p15 -->
<g id="node10" class="node"><title>p15</title>
<ellipse fill="none" stroke="black" cx="569.6" cy="-72.6" rx="126.978" ry="18"/>
<text text-anchor="middle" x="569.6" y="-68.9" font-family="Times,serif" font-size="14.00">manage_assessment_snprecision</text>
</g>
<!-- p12&#45;&gt;p15 -->
<g id="edge18" class="edge"><title>p12&#45;&gt;p15</title>
<path fill="none" stroke="black" d="M449.438,-142.612C472.732,-129.233 506.189,-110.019 531.887,-95.2597"/>
<polygon fill="black" stroke="black" points="533.695,-98.2574 540.623,-90.242 530.209,-92.1873 533.695,-98.2574"/>
<text text-anchor="middle" x="579.1" y="-112.4" font-family="Times,serif" font-size="14.00">metrics_snprecision_json</text>
</g>
<!-- p3 -->
<g id="node5" class="node"><title>p3</title>
<ellipse fill="black" stroke="black" cx="568.6" cy="-333.6" rx="3.6" ry="3.6"/>
<text text-anchor="middle" x="515" y="-341" font-family="Times,serif" font-size="14.00">Channel.fromPath</text>
</g>
<!-- p10 -->
<g id="node6" class="node"><title>p10</title>
<ellipse fill="none" stroke="black" cx="606.6" cy="-246.6" rx="69.5877" ry="18"/>
<text text-anchor="middle" x="606.6" y="-242.9" font-family="Times,serif" font-size="14.00">ValidateInputIds</text>
</g>
<!-- p3&#45;&gt;p10 -->
<g id="edge4" class="edge"><title>p3&#45;&gt;p10</title>
<path fill="none" stroke="black" d="M568.615,-329.74C568.759,-321.847 569.869,-299.237 577.6,-282.6 579.273,-279 581.409,-275.462 583.76,-272.103"/>
<polygon fill="black" stroke="black" points="586.542,-274.227 589.911,-264.182 581.013,-269.934 586.542,-274.227"/>
<text text-anchor="middle" x="596.1" y="-286.4" font-family="Times,serif" font-size="14.00">ref_dir</text>
</g>
<!-- p10&#45;&gt;p12 -->
<g id="edge16" class="edge"><title>p10&#45;&gt;p12</title>
<path fill="none" stroke="black" d="M543.12,-238.947C502.305,-233.458 454.109,-224.319 438.6,-210.6 431.96,-204.727 427.911,-196.157 425.442,-187.767"/>
<polygon fill="black" stroke="black" points="428.805,-186.771 423.148,-177.813 421.984,-188.344 428.805,-186.771"/>
<text text-anchor="middle" x="521.6" y="-199.4" font-family="Times,serif" font-size="14.00">EXIT_STAT_SNPRECISION</text>
</g>
<!-- p11 -->
<g id="node11" class="node"><title>p11</title>
<ellipse fill="none" stroke="black" cx="1092.6" cy="-159.6" rx="95.5831" ry="18"/>
<text text-anchor="middle" x="1092.6" y="-155.9" font-family="Times,serif" font-size="14.00">RobinsonFouldsMetrics</text>
</g>
<!-- p10&#45;&gt;p11 -->
<g id="edge15" class="edge"><title>p10&#45;&gt;p11</title>
<path fill="none" stroke="black" d="M629.576,-229.425C647.481,-217.763 673.446,-202.848 698.6,-195.6 820.13,-160.58 856.866,-191.272 982.6,-177.6 992.791,-176.492 1003.48,-175.113 1014.03,-173.623"/>
<polygon fill="black" stroke="black" points="1014.68,-177.066 1024.07,-172.166 1013.67,-170.138 1014.68,-177.066"/>
<text text-anchor="middle" x="798.6" y="-199.4" font-family="Times,serif" font-size="14.00">EXIT_STAT_ROBINSONFOULDS</text>
</g>
<!-- p4 -->
<g id="node7" class="node"><title>p4</title>
<ellipse fill="black" stroke="black" cx="866.6" cy="-333.6" rx="3.6" ry="3.6"/>
<text text-anchor="middle" x="813" y="-341" font-family="Times,serif" font-size="14.00">Channel.fromPath</text>
</g>
<!-- p5 -->
<g id="node8" class="node"><title>p5</title>
<ellipse fill="none" stroke="black" cx="866.6" cy="-246.6" rx="3.5" ry="3.5"/>
<text text-anchor="middle" x="852.1" y="-253.9" font-family="Times,serif" font-size="14.00">into</text>
</g>
<!-- p4&#45;&gt;p5 -->
<g id="edge5" class="edge"><title>p4&#45;&gt;p5</title>
<path fill="none" stroke="black" d="M866.6,-329.772C866.6,-319.091 866.6,-280.786 866.6,-260.468"/>
<polygon fill="black" stroke="black" points="870.1,-260.184 866.6,-250.184 863.1,-260.185 870.1,-260.184"/>
</g>
<!-- p16 -->
<g id="node9" class="node"><title>p16</title>
<ellipse fill="none" stroke="black" cx="930.6" cy="-72.6" rx="122.678" ry="18"/>
<text text-anchor="middle" x="930.6" y="-68.9" font-family="Times,serif" font-size="14.00">manage_assessment_rfheatmap</text>
</g>
<!-- p5&#45;&gt;p16 -->
<g id="edge6" class="edge"><title>p5&#45;&gt;p16</title>
<path fill="none" stroke="black" d="M866.275,-242.896C864.915,-230.638 860.421,-179.251 875.6,-141.6 882.167,-125.312 894.027,-109.861 905.057,-97.8155"/>
<polygon fill="black" stroke="black" points="907.746,-100.067 912.121,-90.4173 902.684,-95.2325 907.746,-100.067"/>
<text text-anchor="middle" x="931.6" y="-155.9" font-family="Times,serif" font-size="14.00">asses_dir_rfheatmap</text>
</g>
<!-- p5&#45;&gt;p15 -->
<g id="edge7" class="edge"><title>p5&#45;&gt;p15</title>
<path fill="none" stroke="black" d="M865.551,-243.188C861.806,-234.901 848.213,-207.456 827.6,-195.6 776.274,-166.08 745.304,-209.776 695.6,-177.6 665.267,-157.964 680.09,-132.051 652.6,-108.6 645.698,-102.712 637.661,-97.6947 629.359,-93.4565"/>
<polygon fill="black" stroke="black" points="630.822,-90.2771 620.287,-89.1589 627.826,-96.6032 630.822,-90.2771"/>
<text text-anchor="middle" x="754.6" y="-155.9" font-family="Times,serif" font-size="14.00">asses_dir_snprecision</text>
</g>
<!-- p5&#45;&gt;p11 -->
<g id="edge8" class="edge"><title>p5&#45;&gt;p11</title>
<path fill="none" stroke="black" d="M868.606,-243.255C875.649,-235.187 900.244,-208.373 926.6,-195.6 942.039,-188.118 977.804,-180.197 1012.2,-173.787"/>
<polygon fill="black" stroke="black" points="1013.12,-177.177 1022.32,-171.935 1011.86,-170.292 1013.12,-177.177"/>
<text text-anchor="middle" x="998.1" y="-199.4" font-family="Times,serif" font-size="14.00">assess_dir_robinsonfoulds</text>
</g>
<!-- p17 -->
<g id="node18" class="node"><title>p17</title>
<ellipse fill="black" stroke="black" cx="930.6" cy="-1.8" rx="1.8" ry="1.8"/>
</g>
<!-- p16&#45;&gt;p17 -->
<g id="edge21" class="edge"><title>p16&#45;&gt;p17</title>
<path fill="none" stroke="black" d="M930.6,-54.5933C930.6,-42.0587 930.6,-25.3431 930.6,-14.3356"/>
<polygon fill="black" stroke="black" points="934.1,-14.1898 930.6,-4.18985 927.1,-14.1899 934.1,-14.1898"/>
<text text-anchor="middle" x="1010.6" y="-25.4" font-family="Times,serif" font-size="14.00">benchmark_rfheatmap_result</text>
</g>
<!-- p11&#45;&gt;p16 -->
<g id="edge17" class="edge"><title>p11&#45;&gt;p16</title>
<path fill="none" stroke="black" d="M1061.75,-142.412C1036.01,-128.91 999.148,-109.567 971.052,-94.825"/>
<polygon fill="black" stroke="black" points="972.371,-91.5641 961.889,-90.0172 969.118,-97.7627 972.371,-91.5641"/>
<text text-anchor="middle" x="1099.6" y="-112.4" font-family="Times,serif" font-size="14.00">metrics_robinsonfoulds_json</text>
</g>
<!-- p6 -->
<g id="node12" class="node"><title>p6</title>
<ellipse fill="none" stroke="black" cx="558.6" cy="-507.6" rx="83.3857" ry="18"/>
<text text-anchor="middle" x="558.6" y="-503.9" font-family="Times,serif" font-size="14.00">dockerPreconditions</text>
</g>
<!-- p8 -->
<g id="node13" class="node"><title>p8</title>
<ellipse fill="none" stroke="black" cx="644.6" cy="-420.6" rx="83.3857" ry="18"/>
<text text-anchor="middle" x="644.6" y="-416.9" font-family="Times,serif" font-size="14.00">validateInputFormat</text>
</g>
<!-- p6&#45;&gt;p8 -->
<g id="edge9" class="edge"><title>p6&#45;&gt;p8</title>
<path fill="none" stroke="black" d="M554.521,-489.429C553.064,-479.056 553.128,-466.058 559.6,-456.6 564.707,-449.136 571.719,-443.261 579.542,-438.638"/>
<polygon fill="black" stroke="black" points="581.379,-441.629 588.66,-433.932 578.168,-435.408 581.379,-441.629"/>
<text text-anchor="middle" x="634.1" y="-460.4" font-family="Times,serif" font-size="14.00">docker_image_dependency</text>
</g>
<!-- p8&#45;&gt;p12 -->
<g id="edge13" class="edge"><title>p8&#45;&gt;p12</title>
<path fill="none" stroke="black" d="M603.723,-404.73C559.011,-386.377 488.42,-350.904 448.6,-297.6 424.566,-265.427 420.331,-217.526 420.335,-187.723"/>
<polygon fill="black" stroke="black" points="423.836,-187.681 420.499,-177.625 416.837,-187.567 423.836,-187.681"/>
<text text-anchor="middle" x="509.1" y="-286.4" font-family="Times,serif" font-size="14.00">canonical_snprecision</text>
</g>
<!-- p8&#45;&gt;p11 -->
<g id="edge12" class="edge"><title>p8&#45;&gt;p11</title>
<path fill="none" stroke="black" d="M706.399,-408.473C755.252,-398.111 824.205,-379.937 879.6,-351.6 973.219,-303.709 1003.33,-292.251 1069.6,-210.6 1075.16,-203.743 1079.71,-195.32 1083.24,-187.356"/>
<polygon fill="black" stroke="black" points="1086.52,-188.586 1087.06,-178.005 1080.04,-185.943 1086.52,-188.586"/>
<text text-anchor="middle" x="1069.6" y="-286.4" font-family="Times,serif" font-size="14.00">canonical_robinsonfoulds</text>
</g>
<!-- p9 -->
<g id="node15" class="node"><title>p9</title>
<ellipse fill="none" stroke="black" cx="644.6" cy="-333.6" rx="53.8905" ry="18"/>
<text text-anchor="middle" x="644.6" y="-329.9" font-family="Times,serif" font-size="14.00">getQueryIds</text>
</g>
<!-- p8&#45;&gt;p9 -->
<g id="edge11" class="edge"><title>p8&#45;&gt;p9</title>
<path fill="none" stroke="black" d="M644.6,-402.399C644.6,-390.763 644.6,-375.148 644.6,-361.837"/>
<polygon fill="black" stroke="black" points="648.1,-361.775 644.6,-351.775 641.1,-361.775 648.1,-361.775"/>
<text text-anchor="middle" x="708.1" y="-373.4" font-family="Times,serif" font-size="14.00">canonical_getresultsids</text>
</g>
<!-- p7 -->
<g id="node14" class="node"><title>p7</title>
<ellipse fill="black" stroke="black" cx="730.6" cy="-507.6" rx="3.6" ry="3.6"/>
</g>
<!-- p7&#45;&gt;p8 -->
<g id="edge10" class="edge"><title>p7&#45;&gt;p8</title>
<path fill="none" stroke="black" d="M730.078,-503.989C728.36,-495.982 722.193,-471.414 708.6,-456.6 703.538,-451.083 697.4,-446.247 690.954,-442.073"/>
<polygon fill="black" stroke="black" points="692.43,-438.879 682.044,-436.788 688.859,-444.9 692.43,-438.879"/>
<text text-anchor="middle" x="729.1" y="-460.4" font-family="Times,serif" font-size="14.00">tree</text>
</g>
<!-- p9&#45;&gt;p10 -->
<g id="edge14" class="edge"><title>p9&#45;&gt;p10</title>
<path fill="none" stroke="black" d="M636.91,-315.399C631.605,-303.532 624.45,-287.528 618.424,-274.049"/>
<polygon fill="black" stroke="black" points="621.555,-272.476 614.278,-264.775 615.165,-275.333 621.555,-272.476"/>
<text text-anchor="middle" x="670.1" y="-286.4" font-family="Times,serif" font-size="14.00">query_ids_json</text>
</g>
<!-- p13 -->
<g id="node16" class="node"><title>p13</title>
<ellipse fill="black" stroke="black" cx="826.6" cy="-159.6" rx="3.6" ry="3.6"/>
</g>
<!-- p13&#45;&gt;p15 -->
<g id="edge19" class="edge"><title>p13&#45;&gt;p15</title>
<path fill="none" stroke="black" d="M824.752,-156.266C821.745,-152.619 815.437,-145.576 808.6,-141.6 763.52,-115.387 707.724,-98.7672 661.384,-88.526"/>
<polygon fill="black" stroke="black" points="661.856,-85.0476 651.344,-86.3733 660.388,-91.892 661.856,-85.0476"/>
<text text-anchor="middle" x="797.6" y="-112.4" font-family="Times,serif" font-size="14.00">result_dir</text>
</g>
<!-- p14 -->
<g id="node17" class="node"><title>p14</title>
<ellipse fill="black" stroke="black" cx="3.6" cy="-159.6" rx="3.6" ry="3.6"/>
</g>
<!-- p14&#45;&gt;p15 -->
<g id="edge20" class="edge"><title>p14&#45;&gt;p15</title>
<path fill="none" stroke="black" d="M4.66943,-155.877C6.35407,-151.987 10.0197,-144.938 15.6,-141.6 84.4747,-100.396 296.174,-84.0439 437.026,-77.6343"/>
<polygon fill="black" stroke="black" points="437.207,-81.1298 447.042,-77.1898 436.897,-74.1367 437.207,-81.1298"/>
<text text-anchor="middle" x="140.6" y="-112.4" font-family="Times,serif" font-size="14.00">new_data</text>
</g>
</g>
</svg>
