<?xml version="1.0" encoding="UTF-8" standalone="no"?>
<!DOCTYPE svg PUBLIC "-//W3C//DTD SVG 1.1//EN"
 "http://www.w3.org/Graphics/SVG/1.1/DTD/svg11.dtd">
<!-- Generated by graphviz version 2.38.0 (20140413.2041)
 -->
<!-- Title: DAG Pages: 1 -->
<svg width="1259pt" height="534pt"
 viewBox="0.00 0.00 1259.30 533.60" xmlns="http://www.w3.org/2000/svg" xmlns:xlink="http://www.w3.org/1999/xlink">
<g id="graph0" class="graph" transform="scale(1 1) rotate(0) translate(4 529.6)">
<title>DAG</title>
<polygon fill="white" stroke="none" points="-4,4 -4,-529.6 1255.3,-529.6 1255.3,4 -4,4"/>
<!-- p0 -->
<g id="node1" class="node"><title>p0</title>
<ellipse fill="black" stroke="black" cx="107.304" cy="-333.6" rx="3.6" ry="3.6"/>
<text text-anchor="middle" x="53.7037" y="-341" font-family="Times,serif" font-size="14.00">Channel.fromPath</text>
</g>
<!-- p1 -->
<g id="node2" class="node"><title>p1</title>
<ellipse fill="none" stroke="black" cx="107.304" cy="-246.6" rx="3.5" ry="3.5"/>
<text text-anchor="middle" x="92.8037" y="-253.9" font-family="Times,serif" font-size="14.00">into</text>
</g>
<!-- p0&#45;&gt;p1 -->
<g id="edge1" class="edge"><title>p0&#45;&gt;p1</title>
<path fill="none" stroke="black" d="M107.304,-329.772C107.304,-319.091 107.304,-280.786 107.304,-260.468"/>
<polygon fill="black" stroke="black" points="110.804,-260.184 107.304,-250.184 103.804,-260.185 110.804,-260.184"/>
</g>
<!-- p2 -->
<g id="node3" class="node"><title>p2</title>
<ellipse fill="black" stroke="black" cx="5.30366" cy="-159.6" rx="1.8" ry="1.8"/>
</g>
<!-- p1&#45;&gt;p2 -->
<g id="edge2" class="edge"><title>p1&#45;&gt;p2</title>
<path fill="none" stroke="black" d="M103.714,-245.675C88.6919,-245.772 30.5289,-243.923 6.30366,-210.6 -2.02441,-199.144 -0.145106,-181.986 2.31462,-171.044"/>
<polygon fill="black" stroke="black" points="5.68723,-171.98 5.01608,-161.406 -1.05301,-170.091 5.68723,-171.98"/>
<text text-anchor="middle" x="96.3037" y="-199.4" font-family="Times,serif" font-size="14.00">goldstandard_dir_robinsonfoulds</text>
</g>
<!-- p12 -->
<g id="node4" class="node"><title>p12</title>
<ellipse fill="none" stroke="black" cx="394.304" cy="-159.6" rx="79.8859" ry="18"/>
<text text-anchor="middle" x="394.304" y="-155.9" font-family="Times,serif" font-size="14.00">SnPrecisionMetrics</text>
</g>
<!-- p1&#45;&gt;p12 -->
<g id="edge3" class="edge"><title>p1&#45;&gt;p12</title>
<path fill="none" stroke="black" d="M110.402,-244.436C121.164,-240.349 157.829,-226.063 186.304,-210.6 197.028,-204.776 197.981,-200.154 209.304,-195.6 241.734,-182.555 279.352,-174.301 312.164,-169.112"/>
<polygon fill="black" stroke="black" points="312.817,-172.553 322.182,-167.598 311.771,-165.632 312.817,-172.553"/>
<text text-anchor="middle" x="289.304" y="-199.4" font-family="Times,serif" font-size="14.00">goldstandard_dir_snprecision</text>
</g>
<!-- p14 -->
<g id="node10" class="node"><title>p14</title>
<ellipse fill="none" stroke="black" cx="618.304" cy="-72.6" rx="126.978" ry="18"/>
<text text-anchor="middle" x="618.304" y="-68.9" font-family="Times,serif" font-size="14.00">manage_assessment_snprecision</text>
</g>
<!-- p12&#45;&gt;p14 -->
<g id="edge18" class="edge"><title>p12&#45;&gt;p14</title>
<path fill="none" stroke="black" d="M416.659,-142.138C432.373,-131.249 454.268,-117.408 475.304,-108.6 493.758,-100.873 514.296,-94.5991 533.918,-89.612"/>
<polygon fill="black" stroke="black" points="534.894,-92.9766 543.771,-87.1938 533.225,-86.1784 534.894,-92.9766"/>
<text text-anchor="middle" x="544.804" y="-112.4" font-family="Times,serif" font-size="14.00">metrics_snprecision_json</text>
</g>
<!-- p3 -->
<g id="node5" class="node"><title>p3</title>
<ellipse fill="black" stroke="black" cx="549.304" cy="-333.6" rx="3.6" ry="3.6"/>
<text text-anchor="middle" x="495.704" y="-341" font-family="Times,serif" font-size="14.00">Channel.fromPath</text>
</g>
<!-- p10 -->
<g id="node6" class="node"><title>p10</title>
<ellipse fill="none" stroke="black" cx="583.304" cy="-246.6" rx="69.5877" ry="18"/>
<text text-anchor="middle" x="583.304" y="-242.9" font-family="Times,serif" font-size="14.00">ValidateInputIds</text>
</g>
<!-- p3&#45;&gt;p10 -->
<g id="edge4" class="edge"><title>p3&#45;&gt;p10</title>
<path fill="none" stroke="black" d="M549.382,-329.769C549.688,-321.947 551.174,-299.503 558.304,-282.6 559.68,-279.336 561.405,-276.08 563.302,-272.941"/>
<polygon fill="black" stroke="black" points="566.302,-274.752 568.957,-264.495 560.485,-270.858 566.302,-274.752"/>
<text text-anchor="middle" x="576.804" y="-286.4" font-family="Times,serif" font-size="14.00">ref_dir</text>
</g>
<!-- p10&#45;&gt;p12 -->
<g id="edge16" class="edge"><title>p10&#45;&gt;p12</title>
<path fill="none" stroke="black" d="M521.001,-238.353C480.865,-232.592 433.301,-223.371 417.304,-210.6 410.004,-204.773 404.926,-196.106 401.437,-187.617"/>
<polygon fill="black" stroke="black" points="404.646,-186.192 398.033,-177.915 398.041,-188.51 404.646,-186.192"/>
<text text-anchor="middle" x="500.304" y="-199.4" font-family="Times,serif" font-size="14.00">EXIT_STAT_SNPRECISION</text>
</g>
<!-- p11 -->
<g id="node11" class="node"><title>p11</title>
<ellipse fill="none" stroke="black" cx="825.304" cy="-159.6" rx="95.5831" ry="18"/>
<text text-anchor="middle" x="825.304" y="-155.9" font-family="Times,serif" font-size="14.00">RobinsonFouldsMetrics</text>
</g>
<!-- p10&#45;&gt;p11 -->
<g id="edge15" class="edge"><title>p10&#45;&gt;p11</title>
<path fill="none" stroke="black" d="M586.763,-228.604C589.936,-217.477 595.799,-203.57 606.304,-195.6 625.423,-181.094 677.853,-172.416 726.618,-167.33"/>
<polygon fill="black" stroke="black" points="727.03,-170.806 736.632,-166.329 726.334,-163.841 727.03,-170.806"/>
<text text-anchor="middle" x="706.304" y="-199.4" font-family="Times,serif" font-size="14.00">EXIT_STAT_ROBINSONFOULDS</text>
</g>
<!-- p4 -->
<g id="node7" class="node"><title>p4</title>
<ellipse fill="black" stroke="black" cx="1011.3" cy="-333.6" rx="3.6" ry="3.6"/>
<text text-anchor="middle" x="957.704" y="-341" font-family="Times,serif" font-size="14.00">Channel.fromPath</text>
</g>
<!-- p5 -->
<g id="node8" class="node"><title>p5</title>
<ellipse fill="none" stroke="black" cx="1011.3" cy="-246.6" rx="3.5" ry="3.5"/>
<text text-anchor="middle" x="996.804" y="-253.9" font-family="Times,serif" font-size="14.00">into</text>
</g>
<!-- p4&#45;&gt;p5 -->
<g id="edge5" class="edge"><title>p4&#45;&gt;p5</title>
<path fill="none" stroke="black" d="M1011.3,-329.772C1011.3,-319.091 1011.3,-280.786 1011.3,-260.468"/>
<polygon fill="black" stroke="black" points="1014.8,-260.184 1011.3,-250.184 1007.8,-260.185 1014.8,-260.184"/>
</g>
<!-- p15 -->
<g id="node9" class="node"><title>p15</title>
<ellipse fill="none" stroke="black" cx="909.304" cy="-72.6" rx="122.678" ry="18"/>
<text text-anchor="middle" x="909.304" y="-68.9" font-family="Times,serif" font-size="14.00">manage_assessment_rfheatmap</text>
</g>
<!-- p5&#45;&gt;p15 -->
<g id="edge6" class="edge"><title>p5&#45;&gt;p15</title>
<path fill="none" stroke="black" d="M1014.42,-244.677C1036.88,-237.863 1172.21,-194.173 1133.3,-141.6 1116.4,-118.756 1051.11,-100.578 995.351,-88.7843"/>
<polygon fill="black" stroke="black" points="995.925,-85.3289 985.423,-86.7295 994.506,-92.1836 995.925,-85.3289"/>
<text text-anchor="middle" x="1195.3" y="-155.9" font-family="Times,serif" font-size="14.00">asses_dir_rfheatmap</text>
</g>
<!-- p5&#45;&gt;p14 -->
<g id="edge7" class="edge"><title>p5&#45;&gt;p14</title>
<path fill="none" stroke="black" d="M1011.23,-242.955C1010.72,-224.747 1007.29,-118.39 997.304,-108.6 979.787,-91.4335 801.721,-92.9039 777.304,-90.6 760.438,-89.0086 742.578,-87.21 725.156,-85.3933"/>
<polygon fill="black" stroke="black" points="725.271,-81.8862 714.96,-84.323 724.54,-88.8479 725.271,-81.8862"/>
<text text-anchor="middle" x="1067.3" y="-155.9" font-family="Times,serif" font-size="14.00">asses_dir_snprecision</text>
</g>
<!-- p5&#45;&gt;p11 -->
<g id="edge8" class="edge"><title>p5&#45;&gt;p11</title>
<path fill="none" stroke="black" d="M1007.44,-245.807C988.595,-246.619 905.216,-247.899 854.304,-210.6 846.219,-204.677 840.028,-195.765 835.485,-187.098"/>
<polygon fill="black" stroke="black" points="838.605,-185.509 831.189,-177.943 832.268,-188.482 838.605,-185.509"/>
<text text-anchor="middle" x="925.804" y="-199.4" font-family="Times,serif" font-size="14.00">assess_dir_robinsonfoulds</text>
</g>
<!-- p16 -->
<g id="node17" class="node"><title>p16</title>
<ellipse fill="black" stroke="black" cx="909.304" cy="-1.8" rx="1.8" ry="1.8"/>
</g>
<!-- p15&#45;&gt;p16 -->
<g id="edge20" class="edge"><title>p15&#45;&gt;p16</title>
<path fill="none" stroke="black" d="M909.304,-54.5933C909.304,-42.0587 909.304,-25.3431 909.304,-14.3356"/>
<polygon fill="black" stroke="black" points="912.804,-14.1898 909.304,-4.18985 905.804,-14.1899 912.804,-14.1898"/>
<text text-anchor="middle" x="989.304" y="-25.4" font-family="Times,serif" font-size="14.00">benchmark_rfheatmap_result</text>
</g>
<!-- p11&#45;&gt;p15 -->
<g id="edge17" class="edge"><title>p11&#45;&gt;p15</title>
<path fill="none" stroke="black" d="M841.899,-141.807C854.244,-129.315 871.279,-112.077 885.134,-98.057"/>
<polygon fill="black" stroke="black" points="887.915,-100.222 892.455,-90.6493 882.936,-95.3019 887.915,-100.222"/>
<text text-anchor="middle" x="954.304" y="-112.4" font-family="Times,serif" font-size="14.00">metrics_robinsonfoulds_json</text>
</g>
<!-- p6 -->
<g id="node12" class="node"><title>p6</title>
<ellipse fill="none" stroke="black" cx="539.304" cy="-507.6" rx="83.3857" ry="18"/>
<text text-anchor="middle" x="539.304" y="-503.9" font-family="Times,serif" font-size="14.00">dockerPreconditions</text>
</g>
<!-- p8 -->
<g id="node13" class="node"><title>p8</title>
<ellipse fill="none" stroke="black" cx="625.304" cy="-420.6" rx="83.3857" ry="18"/>
<text text-anchor="middle" x="625.304" y="-416.9" font-family="Times,serif" font-size="14.00">validateInputFormat</text>
</g>
<!-- p6&#45;&gt;p8 -->
<g id="edge9" class="edge"><title>p6&#45;&gt;p8</title>
<path fill="none" stroke="black" d="M535.225,-489.429C533.768,-479.056 533.832,-466.058 540.304,-456.6 545.411,-449.136 552.423,-443.261 560.245,-438.638"/>
<polygon fill="black" stroke="black" points="562.082,-441.629 569.364,-433.932 558.872,-435.408 562.082,-441.629"/>
<text text-anchor="middle" x="614.804" y="-460.4" font-family="Times,serif" font-size="14.00">docker_image_dependency</text>
</g>
<!-- p8&#45;&gt;p12 -->
<g id="edge13" class="edge"><title>p8&#45;&gt;p12</title>
<path fill="none" stroke="black" d="M585.639,-404.749C541.346,-386.207 470.486,-350.368 429.304,-297.6 404.284,-265.541 396.989,-217.606 394.956,-187.766"/>
<polygon fill="black" stroke="black" points="398.444,-187.455 394.422,-177.654 391.454,-187.825 398.444,-187.455"/>
<text text-anchor="middle" x="489.804" y="-286.4" font-family="Times,serif" font-size="14.00">canonical_snprecision</text>
</g>
<!-- p8&#45;&gt;p11 -->
<g id="edge12" class="edge"><title>p8&#45;&gt;p11</title>
<path fill="none" stroke="black" d="M700.546,-412.903C720.78,-407.791 741.212,-399.133 756.304,-384.6 811.642,-331.312 822.886,-234.794 824.976,-187.79"/>
<polygon fill="black" stroke="black" points="828.475,-187.863 825.314,-177.751 821.479,-187.628 828.475,-187.863"/>
<text text-anchor="middle" x="881.304" y="-286.4" font-family="Times,serif" font-size="14.00">canonical_robinsonfoulds</text>
</g>
<!-- p9 -->
<g id="node15" class="node"><title>p9</title>
<ellipse fill="none" stroke="black" cx="625.304" cy="-333.6" rx="53.8905" ry="18"/>
<text text-anchor="middle" x="625.304" y="-329.9" font-family="Times,serif" font-size="14.00">getQueryIds</text>
</g>
<!-- p8&#45;&gt;p9 -->
<g id="edge11" class="edge"><title>p8&#45;&gt;p9</title>
<path fill="none" stroke="black" d="M625.304,-402.399C625.304,-390.763 625.304,-375.148 625.304,-361.837"/>
<polygon fill="black" stroke="black" points="628.804,-361.775 625.304,-351.775 621.804,-361.775 628.804,-361.775"/>
<text text-anchor="middle" x="688.804" y="-373.4" font-family="Times,serif" font-size="14.00">canonical_getresultsids</text>
</g>
<!-- p7 -->
<g id="node14" class="node"><title>p7</title>
<ellipse fill="black" stroke="black" cx="711.304" cy="-507.6" rx="3.6" ry="3.6"/>
</g>
<!-- p7&#45;&gt;p8 -->
<g id="edge10" class="edge"><title>p7&#45;&gt;p8</title>
<path fill="none" stroke="black" d="M710.782,-503.989C709.064,-495.982 702.897,-471.414 689.304,-456.6 684.241,-451.083 678.104,-446.247 671.657,-442.073"/>
<polygon fill="black" stroke="black" points="673.134,-438.879 662.747,-436.788 669.563,-444.9 673.134,-438.879"/>
<text text-anchor="middle" x="710.804" y="-460.4" font-family="Times,serif" font-size="14.00">tree</text>
</g>
<!-- p9&#45;&gt;p10 -->
<g id="edge14" class="edge"><title>p9&#45;&gt;p10</title>
<path fill="none" stroke="black" d="M617.006,-315.807C611.062,-303.778 602.944,-287.348 596.164,-273.628"/>
<polygon fill="black" stroke="black" points="599.296,-272.064 591.728,-264.649 593.02,-275.165 599.296,-272.064"/>
<text text-anchor="middle" x="648.804" y="-286.4" font-family="Times,serif" font-size="14.00">query_ids_json</text>
</g>
<!-- p13 -->
<g id="node16" class="node"><title>p13</title>
<ellipse fill="black" stroke="black" cx="618.304" cy="-159.6" rx="3.6" ry="3.6"/>
</g>
<!-- p13&#45;&gt;p14 -->
<g id="edge19" class="edge"><title>p13&#45;&gt;p14</title>
<path fill="none" stroke="black" d="M618.304,-155.772C618.304,-147.284 618.304,-121.353 618.304,-100.865"/>
<polygon fill="black" stroke="black" points="621.804,-100.769 618.304,-90.769 614.804,-100.769 621.804,-100.769"/>
<text text-anchor="middle" x="644.304" y="-112.4" font-family="Times,serif" font-size="14.00">result_dir</text>
</g>
</g>
</svg>
